<svg width="387" height="154" viewBox="0 0 387 154" fill="none" xmlns="http://www.w3.org/2000/svg">
<path d="M161 64L379 65" stroke="#5A189A" stroke-width="2" stroke-linecap="round"/>
<path d="M379 58C383.418 58 387 54.4183 387 50C387 45.5817 383.418 42 379 42C374.582 42 371 45.5817 371 50C371 54.4183 374.582 58 379 58Z" fill="#E0AAFF"/>
<path d="M118.71 0C118.71 0 117.823 2.95161 117.823 6.43548C117.823 9.33871 120.09 10.7419 120.09 13.1613C120.09 17.9516 116.986 21 116.986 21C116.986 21 118.119 18.5323 118.119 14.3226C118.119 12.871 116 9.62903 116 7.54839C116 3.04839 118.71 0 118.71 0ZM125.165 0C125.165 0 124.278 2.95161 124.278 6.43548C124.278 9.33871 126.545 10.7419 126.545 13.1613C126.545 17.9516 123.441 21 123.441 21C123.441 21 124.574 18.5323 124.574 14.3226C124.574 12.871 122.455 9.62903 122.455 7.54839C122.406 3.04839 125.165 0 125.165 0ZM131.62 0C131.62 0 130.733 2.95161 130.733 6.43548C130.733 9.33871 133 10.7419 133 13.1613C133 17.9516 129.896 21 129.896 21C129.896 21 131.029 18.5323 131.029 14.3226C131.029 12.871 128.91 9.62903 128.91 7.54839C128.861 3.04839 131.62 0 131.62 0Z" fill="#E0AAFF"/>
<path d="M371 144V152H387V144H371ZM387 72C387 67.5817 383.418 64 379 64C374.582 64 371 67.5817 371 72H387ZM387 144V72H371V144H387Z" fill="black"/>
<path fill-rule="evenodd" clip-rule="evenodd" d="M205.138 112.317V117.034C205.138 122.64 204.437 127.664 203.036 132.107C201.634 136.551 199.618 140.328 196.986 143.438C194.354 146.548 191.192 148.924 187.501 150.564C183.844 152.205 179.742 153.025 175.196 153.025C170.787 153.025 166.737 152.205 163.045 150.564C159.388 148.924 156.209 146.548 153.509 143.438C150.843 140.328 148.775 136.551 147.306 132.107C145.836 127.664 145.101 122.64 145.101 117.034V112.317C145.101 106.712 145.819 101.705 147.254 97.2954C148.279 94.1971 149.595 91.4228 151.201 88.9726L158.066 95.6923C157.388 97.1316 156.809 98.7084 156.329 100.423C155.372 103.841 154.894 107.771 154.894 112.215V117.034C154.894 121.512 155.372 125.477 156.329 128.929C157.286 132.347 158.653 135.235 160.431 137.593C162.242 139.917 164.378 141.678 166.839 142.874C169.334 144.07 172.12 144.668 175.196 144.668C178.409 144.668 181.263 144.07 183.758 142.874C186.253 141.678 188.355 139.917 190.064 137.593C191.808 135.235 193.124 132.347 194.012 128.929C194.901 125.477 195.345 121.512 195.345 117.034V112.215C195.345 107.771 194.884 103.841 193.961 100.423C193.072 97.0049 191.756 94.1338 190.013 91.8096C188.27 89.4854 186.134 87.7251 183.604 86.5288C181.109 85.3325 178.272 84.7344 175.094 84.7344C172.018 84.7344 169.232 85.3325 166.737 86.5288C166.241 86.7698 165.759 87.0336 165.291 87.3203L158.914 81.0332C160.183 80.1716 161.526 79.4229 162.943 78.7871C166.634 77.1465 170.685 76.3262 175.094 76.3262C179.64 76.3262 183.741 77.1465 187.398 78.7871C191.09 80.4277 194.251 82.8203 196.883 85.9648C199.549 89.0752 201.583 92.8521 202.984 97.2954C204.42 101.705 205.138 106.712 205.138 112.317ZM159.593 92.9361C159.846 92.5473 160.108 92.1718 160.379 91.8096C161.133 90.8242 161.948 89.9402 162.824 89.1576L156.481 82.9036C155.411 83.8295 154.403 84.8499 153.458 85.9648C153.308 86.1397 153.16 86.3167 153.014 86.4958L159.593 92.9361ZM228.414 77.3516H232.669L257.125 138.208L281.529 77.3516H285.785H291.168H294.244V152H284.4V122.879L285.35 91.6617L260.816 152H253.331L228.847 91.5774L229.798 122.879V152H219.955V77.3516H223.082H228.414ZM359.049 143.951V152H321.52H319.52H311.625V77.3516H319.52H321.52H358.536V85.4521H321.52V109.446H353.819V117.496H321.52V143.951H359.049Z" fill="black"/>
<path d="M3 90.8657L80.5965 14.4274C81.375 13.6605 82.625 13.6605 83.4035 14.4274L161 90.8657" stroke="#5A189A" stroke-width="5" stroke-linecap="round"/>
<path d="M105.582 27.194H142.492C143.597 27.194 144.492 28.0895 144.492 29.194V63.7463" stroke="black" stroke-width="5" stroke-linecap="round"/>
<path d="M138.597 86.1493V149C138.597 150.105 137.702 151 136.597 151H101.81C100.706 151 99.8102 150.105 99.8102 149V114.09C99.8102 112.985 98.9148 112.09 97.8102 112.09H65.7939C64.6894 112.09 63.7939 112.985 63.7939 114.09V149C63.7939 150.105 62.8985 151 61.7939 151H27.403C26.2984 151 25.403 150.105 25.403 149V86.1493" stroke="black" stroke-width="5" stroke-linecap="round"/>
</svg>
